<svg width=18 height=21 viewBox="0 0 18 21" fill="none" xmlns="http://www.w3.org/2000/svg">
    <path
        d="M12.4922 12.375C11.3594 12.375 10.8516 13 9.01562 13C7.14062 13 6.63281 12.375 5.5 12.375C2.60938 12.375 0.265625 14.7578 0.265625 17.6484V18.625C0.265625 19.6797 1.08594 20.5 2.14062 20.5H15.8906C16.9062 20.5 17.7656 19.6797 17.7656 18.625V17.6484C17.7656 14.7578 15.3828 12.375 12.4922 12.375ZM15.8906 18.625H2.14062V17.6484C2.14062 15.7734 3.625 14.25 5.5 14.25C6.08594 14.25 6.98438 14.875 9.01562 14.875C11.0078 14.875 11.9062 14.25 12.4922 14.25C14.3672 14.25 15.8906 15.7734 15.8906 17.6484V18.625ZM9.01562 11.75C12.1016 11.75 14.6406 9.25 14.6406 6.125C14.6406 3.03906 12.1016 0.5 9.01562 0.5C5.89062 0.5 3.39062 3.03906 3.39062 6.125C3.39062 9.25 5.89062 11.75 9.01562 11.75ZM9.01562 2.375C11.0469 2.375 12.7656 4.09375 12.7656 6.125C12.7656 8.19531 11.0469 9.875 9.01562 9.875C6.94531 9.875 5.26562 8.19531 5.26562 6.125C5.26562 4.09375 6.94531 2.375 9.01562 2.375Z"
        fill="currentColor" />
</svg>