<svg width=22 height=18 viewBox="0 0 22 18" fill="none" xmlns="http://www.w3.org/2000/svg">
    <path
        d="M10.9018 13.6786L12.3259 12.2545L10.4598 10.3884L9.03571 11.8125V12.5H10.2143V13.6786H10.9018ZM16.2913 5.24442C16.4304 5.10528 16.4345 4.97024 16.3036 4.83928C16.1726 4.70833 16.0376 4.71243 15.8984 4.85156L11.6016 9.14844C11.4624 9.28757 11.4583 9.42262 11.5893 9.55357C11.7202 9.68452 11.8553 9.68043 11.9944 9.54129L16.2913 5.24442ZM17.2857 12.1317V14.4643C17.2857 15.4382 16.9379 16.2731 16.2422 16.9687C15.5547 17.6562 14.724 18 13.75 18H3.53571C2.56176 18 1.72693 17.6562 1.03125 16.9687C0.34375 16.2731 0 15.4382 0 14.4643V4.25C0 3.27604 0.34375 2.44531 1.03125 1.75781C1.72693 1.06213 2.56176 0.714285 3.53571 0.714285H13.75C14.2656 0.714285 14.7444 0.816591 15.1864 1.0212C15.3092 1.0785 15.3828 1.17262 15.4074 1.30357C15.4319 1.44271 15.3951 1.56138 15.2969 1.6596L14.6953 2.26116C14.5807 2.37574 14.4498 2.40848 14.3025 2.35937C14.1142 2.31027 13.9301 2.28571 13.75 2.28571H3.53571C2.99554 2.28571 2.53311 2.47805 2.14844 2.86272C1.76376 3.2474 1.57143 3.70982 1.57143 4.25V14.4643C1.57143 15.0045 1.76376 15.4669 2.14844 15.8516C2.53311 16.2362 2.99554 16.4286 3.53571 16.4286H13.75C14.2902 16.4286 14.7526 16.2362 15.1373 15.8516C15.5219 15.4669 15.7143 15.0045 15.7143 14.4643V12.9174C15.7143 12.811 15.7511 12.721 15.8248 12.6473L16.6105 11.8616C16.7333 11.7388 16.8765 11.7102 17.0402 11.7757C17.2039 11.8411 17.2857 11.9598 17.2857 12.1317ZM16.1071 3.07143L19.6429 6.60714L11.3929 14.8571H7.85714V11.3214L16.1071 3.07143ZM21.558 4.69196L20.4286 5.82143L16.8929 2.28571L18.0223 1.15625C18.2515 0.927082 18.5298 0.812499 18.8571 0.812499C19.1845 0.812499 19.4628 0.927082 19.692 1.15625L21.558 3.02232C21.7872 3.25149 21.9018 3.52976 21.9018 3.85714C21.9018 4.18452 21.7872 4.4628 21.558 4.69196Z"
        fill="currentColor" />
</svg>