<svg width=16 height=16 viewBox="0 0 16 16" fill="none" xmlns="http://www.w3.org/2000/svg">
    <path
        d="M15.853 12.6964C15.853 12.8973 15.8158 13.1615 15.7414 13.4888C15.6669 13.8088 15.5888 14.0618 15.507 14.2478C15.3507 14.6198 14.8969 15.0141 14.1454 15.4308C13.446 15.8103 12.754 16 12.0695 16C11.8686 16 11.6714 15.9888 11.478 15.9665C11.2845 15.9368 11.0687 15.8884 10.8306 15.8214C10.6 15.7545 10.4251 15.7024 10.3061 15.6652C10.1945 15.6205 9.98986 15.5424 9.69224 15.4308C9.39462 15.3192 9.21233 15.2522 9.14537 15.2299C8.4162 14.9695 7.76516 14.6607 7.19224 14.3036C6.2473 13.7158 5.26516 12.9122 4.24581 11.8929C3.22647 10.8735 2.4229 9.89137 1.8351 8.94643C1.47796 8.37351 1.16918 7.72247 0.908761 6.9933C0.88644 6.92634 0.819475 6.74405 0.707868 6.44643C0.596261 6.14881 0.518136 5.9442 0.473493 5.83259C0.436291 5.71354 0.384208 5.53869 0.317243 5.30804C0.250279 5.06994 0.201916 4.85417 0.172154 4.66071C0.149833 4.46726 0.138672 4.27009 0.138672 4.0692C0.138672 3.38467 0.328404 2.69271 0.707868 1.9933C1.12454 1.24181 1.51888 0.787946 1.8909 0.631696C2.07692 0.549851 2.32989 0.471726 2.64983 0.397321C2.97721 0.322916 3.24135 0.285713 3.44224 0.285713C3.54641 0.285713 3.62454 0.296874 3.67662 0.319196C3.81055 0.363839 4.00772 0.646577 4.26814 1.16741C4.34998 1.30878 4.46159 1.50967 4.60296 1.77009C4.74433 2.03051 4.87454 2.2686 4.99358 2.48437C5.11263 2.69271 5.22796 2.88988 5.33957 3.07589C5.36189 3.10565 5.42513 3.19866 5.5293 3.35491C5.6409 3.51116 5.72275 3.64509 5.77483 3.7567C5.82692 3.86086 5.85296 3.96503 5.85296 4.0692C5.85296 4.21801 5.74507 4.40402 5.5293 4.62723C5.32096 4.85045 5.09031 5.05506 4.83733 5.24107C4.5918 5.42708 4.36114 5.62426 4.14537 5.83259C3.93704 6.04092 3.83287 6.21205 3.83287 6.34598C3.83287 6.41295 3.85147 6.49851 3.88867 6.60268C3.92587 6.6994 3.95564 6.77381 3.97796 6.82589C4.00772 6.87798 4.0598 6.96726 4.13421 7.09375C4.21605 7.22024 4.2607 7.29092 4.26814 7.3058C4.83361 8.32515 5.48093 9.1994 6.2101 9.92857C6.93927 10.6577 7.81352 11.3051 8.83287 11.8705C8.84775 11.878 8.91843 11.9226 9.04492 12.0045C9.17141 12.0789 9.2607 12.131 9.31278 12.1607C9.36486 12.183 9.43927 12.2128 9.53599 12.25C9.64016 12.2872 9.72573 12.3058 9.79269 12.3058C9.92662 12.3058 10.0977 12.2016 10.3061 11.9933C10.5144 11.7775 10.7116 11.5469 10.8976 11.3013C11.0836 11.0484 11.2882 10.8177 11.5114 10.6094C11.7347 10.3936 11.9207 10.2857 12.0695 10.2857C12.1736 10.2857 12.2778 10.3118 12.382 10.3638C12.4936 10.4159 12.6275 10.4978 12.7838 10.6094C12.94 10.7135 13.033 10.7768 13.0628 10.7991C13.2488 10.9107 13.446 11.026 13.6543 11.1451C13.8701 11.2641 14.1082 11.3943 14.3686 11.5357C14.629 11.6771 14.8299 11.7887 14.9713 11.8705C15.4921 12.131 15.7748 12.3281 15.8195 12.4621C15.8418 12.5141 15.853 12.5923 15.853 12.6964Z"
        fill="currentColor" />
</svg>